# xmcd
#
# Track frame offsets: 
#        150
#        14097
#        29030
#        42335
#        59690
#        73810
#        89362
#        103115
#        119180
#        136417
#
# Disc length: 1988 seconds
#
# Revision: 3
# Processed by: cddbd v1.5.2PL0 Copyright (c) Steve Scherf et al.
# Submitted via: ExactAudioCopy v1.0b3
#
DISCID=a107c20a
DTITLE=Vasilis Kazoulis - Boreino Limani
DYEAR=1995
DGENRE=Rock
TTITLE0=Eyxes
TTITLE1=Ths Agonhs Grammhs
TTITLE2=Boreino Limani
TTITLE3=Fwteinh Vroxh
TTITLE4=Isokrathma
TTITLE5=Thalassino
TTITLE6=Naxa Kati Na Pw
TTITLE7=S' Exasa
TTITLE8=Potamos
TTITLE9=Kryes Nyxtes
EXTD=
EXTT0=
EXTT1=
EXTT2=
EXTT3=
EXTT4=
EXTT5=
EXTT6=
EXTT7=
EXTT8=
EXTT9=
PLAYORDER=
